@startuml
!theme plain

[*] --> 请求验证码: axios POST /api/auth/ask-code

请求验证码 --> 验证码发送失败: 发送失败
请求验证码 --> 验证码发送成功: 发送成功
验证码发送失败 --> 请求验证码: 返回修改
验证码发送成功 --> 用户输入信息

用户输入信息 --> 前端初次校验: 用户输入\nusername, password, email, code
前端初次校验 --> 校验失败: 校验不通过
前端初次校验 --> 校验成功: 校验通过

校验失败 --> 用户输入信息: 返回修改
校验成功 --> 请求注册: axios POST /api/auth/register

请求注册 --> 限流检测: FlowLimitingFilter
限流检测 --> 操作频繁: 被限流
操作频繁 --> [*]

限流检测 --> 验证码校验: 未被限流
验证码校验 -left-> 验证码为空: code 为 null
验证码校验 -left-> 验证码错误或过期: code 与 redis 不一致
验证码校验 --> email检测: code 校验成功

验证码为空 --> [*]
验证码错误或过期 --> [*]
email检测 --> 邮箱已注册: findAccountByNameOrEmail
email检测 --> 密码加密保存: 未被注册

邮箱已注册 --> [*]
密码加密保存 --> 注册成功: save(account)
密码加密保存 --> 注册失败: 内部错误

注册成功 --> [*]
注册失败 --> [*]
@enduml
